<svg width="21.000000" height="21.000000" viewBox="0 0 21 21" fill="none" xmlns="http://www.w3.org/2000/svg" xmlns:xlink="http://www.w3.org/1999/xlink">
	<desc>
			Created with Pixso.
	</desc>
	<defs>
		<clipPath id="clip15_18">
			<rect id="iconfinder_5279111_network_fb_social media_facebook_facebook logo_icon 2" width="21.000000" height="21.000000" fill="white" fill-opacity="0"/>
		</clipPath>
	</defs>
	<rect id="iconfinder_5279111_network_fb_social media_facebook_facebook logo_icon 2" width="21.000000" height="21.000000" fill="#FFFFFF" fill-opacity="0"/>
	<g clip-path="url(#clip15_18)">
		<path id="Vector" d="M10.45 21L10.46 21L10.46 21L10.45 21ZM10.53 21L10.53 21L10.54 21L10.53 21ZM10.42 20.99L10.43 20.99L10.43 20.99L10.42 20.99ZM10.56 20.99L10.56 20.99L10.57 20.99L10.56 20.99ZM10.39 20.99L10.4 20.99L10.39 20.99L10.39 20.99ZM10.6 20.99L10.59 20.99L10.6 20.99L10.6 20.99ZM10.63 20.99L10.63 20.99L10.64 20.99L10.63 20.99ZM10.35 20.99L10.36 20.99L10.36 20.99L10.35 20.99ZM10.66 20.99L10.66 20.99L10.67 20.99L10.66 20.99ZM10.32 20.99L10.33 20.99L10.33 20.99L10.32 20.99ZM10.7 20.99L10.69 20.99L10.7 20.99L10.7 20.99ZM10.29 20.99L10.3 20.99L10.29 20.99L10.29 20.99ZM10.25 20.99L10.26 20.99L10.26 20.99L10.25 20.99ZM10.73 20.99L10.73 20.99L10.74 20.99L10.73 20.99ZM10.22 20.99L10.23 20.99L10.22 20.99L10.22 20.99ZM10.77 20.99L10.76 20.99L10.77 20.99L10.77 20.99ZM10.8 20.99L10.79 20.99L10.8 20.99L10.8 20.99ZM10.19 20.99L10.2 20.99L10.19 20.99L10.19 20.99ZM10.16 20.99L10.17 20.99L10.16 20.99L10.15 20.99L10.16 20.99ZM10.83 20.99L10.82 20.99L10.83 20.99L10.84 20.99L10.83 20.99ZM10.87 20.99L10.86 20.99L10.88 20.99L10.87 20.99ZM10.11 20.99L10.13 20.99L10.12 20.99L10.11 20.99ZM10.08 20.99L10.1 20.99L10.09 20.99L10.08 20.99ZM10.9 20.99L10.89 20.99L10.91 20.99L10.9 20.99ZM10.05 20.99L10.07 20.99L10.06 20.99L10.05 20.99ZM10.93 20.99L10.92 20.99L10.94 20.99L10.93 20.99ZM10.01 20.98L10.03 20.98L10.02 20.98L10.01 20.98ZM10.97 20.98L10.96 20.98L10.98 20.98L10.97 20.98ZM9.98 20.98L10 20.98L9.99 20.98L9.98 20.98ZM11 20.98L10.99 20.98L11.01 20.98L11 20.98ZM9.95 20.98L9.97 20.98L9.96 20.98L9.95 20.98ZM11.03 20.98L11.02 20.98L11.04 20.98L11.03 20.98ZM11.07 20.98L11.05 20.98L11.07 20.98L11.08 20.98L11.07 20.98ZM9.92 20.98L9.94 20.98L9.92 20.98L9.91 20.98L9.92 20.98ZM11.1 20.98L11.1 20.98L11.11 20.98L11.1 20.98ZM9.88 20.98L9.89 20.98L9.89 20.98L9.88 20.98ZM9.85 20.98L9.86 20.98L9.85 20.98L9.85 20.98ZM11.14 20.98L11.13 20.98L11.14 20.98L11.14 20.98ZM9.82 20.97L9.83 20.97L9.82 20.97L9.81 20.97L9.82 20.97ZM11.17 20.97L11.16 20.97L11.17 20.97L11.18 20.97L11.17 20.97ZM11.2 20.97L11.2 20.97L11.21 20.97L11.2 20.97ZM9.78 20.97L9.79 20.97L9.79 20.97L9.78 20.97ZM9.75 20.97L9.76 20.97L9.75 20.97L9.75 20.97ZM11.24 20.97L11.23 20.97L11.24 20.97L11.24 20.97ZM9.72 20.97L9.73 20.97L9.72 20.97L9.72 20.97ZM11.27 20.97L11.26 20.97L11.27 20.97L11.27 20.97ZM9.68 20.96L9.69 20.96L9.69 20.96L9.68 20.96ZM11.3 20.96L11.3 20.96L11.31 20.96L11.3 20.96ZM11.34 20.96L11.33 20.96L11.34 20.96L11.34 20.96ZM9.65 20.96L9.66 20.96L9.65 20.96L9.65 20.96ZM9.62 20.96L9.63 20.96L9.62 20.96L9.62 20.96ZM11.37 20.96L11.36 20.96L11.37 20.96L11.37 20.96ZM9.59 20.96L9.59 20.96L9.59 20.96L9.59 20.96ZM11.4 20.96L11.4 20.96L11.4 20.96L11.4 20.96ZM11.44 20.95L11.43 20.95L11.44 20.95L11.44 20.95ZM9.55 20.95L9.56 20.95L9.55 20.95L9.55 20.95ZM9.52 20.95L9.52 20.95L9.52 20.95L9.52 20.95ZM11.47 20.95L11.47 20.95L11.47 20.95L11.47 20.95ZM8.85 20.87C3.84 20.08 0 15.73 0 10.5C0 4.7 4.7 0 10.5 0C16.29 0 21 4.7 21 10.5C21 15.73 17.15 20.08 12.14 20.87L12.14 13.53L14.58 13.53L15.05 10.5L12.14 10.5L12.14 8.53C12.14 7.69 12.54 6.89 13.85 6.89L15.17 6.89L15.17 4.3C15.17 4.3 13.97 4.1 12.82 4.1C10.42 4.1 8.85 5.55 8.85 8.18L8.85 10.5L6.19 10.5L6.19 13.53L8.85 13.53L8.85 20.87Z" fill="#FFFFFF" fill-opacity="1.000000" fill-rule="evenodd"/>
	</g>
</svg>
