<svg width="22.000000" height="22.000000" viewBox="0 0 22 22" fill="none" xmlns="http://www.w3.org/2000/svg" xmlns:xlink="http://www.w3.org/1999/xlink">
	<desc>
			Created with Pixso.
	</desc>
	<defs>
		<clipPath id="clip15_16">
			<rect id="iconfinder_4747498_instagram_social media_icon 3" width="22.000000" height="22.000000" fill="white" fill-opacity="0"/>
		</clipPath>
	</defs>
	<rect id="iconfinder_4747498_instagram_social media_icon 3" width="22.000000" height="22.000000" fill="#FFFFFF" fill-opacity="0"/>
	<g clip-path="url(#clip15_16)">
		<path id="Vector" d="M17.68 6.19C17.68 6.34 17.65 6.5 17.59 6.65C17.53 6.79 17.44 6.92 17.33 7.04C17.22 7.15 17.09 7.23 16.94 7.29C16.8 7.35 16.64 7.39 16.49 7.39C16.33 7.39 16.17 7.35 16.03 7.29C15.88 7.23 15.75 7.15 15.64 7.04C15.53 6.92 15.44 6.79 15.38 6.65C15.32 6.5 15.29 6.34 15.29 6.19C15.29 5.87 15.41 5.56 15.64 5.34C15.86 5.12 16.17 4.99 16.49 4.99C16.8 4.99 17.11 5.12 17.33 5.34C17.56 5.56 17.68 5.87 17.68 6.19ZM21.49 11.6L21.49 11.61L21.42 15.96C21.4 17.52 20.77 19.02 19.66 20.13C18.56 21.23 17.06 21.86 15.49 21.88L11.14 21.95L11.12 21.95L6.78 21.88C5.21 21.86 3.71 21.23 2.61 20.13C1.5 19.02 0.87 17.52 0.85 15.96L0.78 11.6L0.78 11.58L0.85 7.24C0.87 5.67 1.5 4.17 2.61 3.07C3.71 1.96 5.21 1.33 6.78 1.31L11.14 1.24L11.15 1.24L15.49 1.31C17.06 1.33 18.56 1.96 19.67 3.07C20.77 4.17 21.4 5.67 21.42 7.24L21.49 11.6ZM19.56 11.6L19.49 7.27C19.48 6.2 19.05 5.19 18.3 4.43C17.55 3.68 16.53 3.25 15.46 3.24L11.14 3.17L6.81 3.24C5.74 3.25 4.72 3.68 3.97 4.43C3.22 5.19 2.79 6.2 2.78 7.27L2.71 11.6L2.78 15.93C2.79 16.99 3.22 18.01 3.97 18.76C4.72 19.51 5.74 19.94 6.81 19.95L11.14 20.02L15.46 19.95C16.53 19.94 17.55 19.51 18.3 18.76C19.05 18.01 19.48 16.99 19.49 15.93L19.56 11.6ZM16.45 11.6C16.45 13.01 15.89 14.36 14.89 15.36C13.9 16.35 12.55 16.91 11.14 16.91C9.73 16.91 8.37 16.35 7.38 15.36C6.38 14.36 5.82 13.01 5.82 11.6C5.82 10.19 6.38 8.83 7.38 7.84C8.37 6.84 9.73 6.28 11.14 6.28C12.55 6.28 13.9 6.84 14.89 7.84C15.89 8.83 16.45 10.19 16.45 11.6ZM14.52 11.6C14.52 10.7 14.17 9.84 13.53 9.2C12.9 8.57 12.03 8.21 11.14 8.21C10.24 8.21 9.37 8.57 8.74 9.2C8.1 9.84 7.75 10.7 7.75 11.6C7.75 12.5 8.1 13.36 8.74 13.99C9.37 14.63 10.24 14.99 11.14 14.99C12.03 14.99 12.9 14.63 13.53 13.99C14.17 13.36 14.52 12.5 14.52 11.6Z" fill="#FFFFFF" fill-opacity="1.000000" fill-rule="nonzero"/>
	</g>
</svg>
