<svg width="24.000000" height="20.000000" viewBox="0 0 24 20" fill="none" xmlns="http://www.w3.org/2000/svg" xmlns:xlink="http://www.w3.org/1999/xlink">
	<desc>
			Created with Pixso.
	</desc>
	<defs/>
	<path id="Vector" d="M24 2.36C23.11 2.76 22.16 3.04 21.17 3.16C22.18 2.53 22.96 1.54 23.33 0.36C22.38 0.94 21.33 1.36 20.21 1.59C19.31 0.61 18.03 0 16.61 0C13.89 0 11.69 2.26 11.69 5.04C11.69 5.44 11.73 5.82 11.82 6.19C7.72 5.98 4.09 3.97 1.67 0.92C1.24 1.66 1 2.53 1 3.46C1 5.21 1.87 6.76 3.19 7.66C2.38 7.63 1.62 7.41 0.96 7.03C0.96 7.05 0.96 7.07 0.96 7.09C0.96 9.54 2.66 11.58 4.91 12.04C4.5 12.16 4.06 12.22 3.61 12.22C3.29 12.22 2.99 12.19 2.69 12.13C3.31 14.13 5.13 15.6 7.28 15.64C5.6 16.99 3.48 17.8 1.17 17.8C0.77 17.8 0.38 17.77 0 17.73C2.17 19.16 4.76 20 7.54 20C16.6 20 21.55 12.3 21.55 5.63C21.55 5.41 21.55 5.19 21.54 4.98C22.5 4.26 23.34 3.38 24 2.36Z" fill="#FFFFFF" fill-opacity="1.000000" fill-rule="nonzero"/>
</svg>
