<svg width="40.000000" height="40.000000" viewBox="0 0 40 40" fill="none" xmlns="http://www.w3.org/2000/svg" xmlns:xlink="http://www.w3.org/1999/xlink">
	<desc>
			Created with Pixso.
	</desc>
	<defs>
		<clipPath id="clip10_27">
			<rect id="heart" width="40.000000" height="40.000000" fill="white" fill-opacity="0"/>
		</clipPath>
	</defs>
	<rect id="heart" width="40.000000" height="40.000000" fill="#FFFFFF" fill-opacity="0"/>
	<g clip-path="url(#clip10_27)">
		<path id="Vector" d="M31.75 5.69C30.64 5.23 29.45 4.99 28.25 4.99C27.04 4.99 25.85 5.23 24.74 5.69C23.62 6.15 22.61 6.83 21.76 7.68L20 9.45L18.23 7.68C16.51 5.96 14.18 4.99 11.75 4.99C9.31 4.99 6.98 5.96 5.26 7.68C3.54 9.4 2.58 11.73 2.58 14.16C2.58 16.59 3.54 18.93 5.26 20.65L7.03 22.41L20 35.38L32.96 22.41L34.73 20.65C35.58 19.79 36.26 18.78 36.72 17.67C37.18 16.56 37.41 15.37 37.41 14.16C37.41 12.96 37.18 11.77 36.72 10.65C36.26 9.54 35.58 8.53 34.73 7.68C33.88 6.83 32.87 6.15 31.75 5.69Z" stroke="#100C46" stroke-opacity="1.000000" stroke-width="2.000000" stroke-linejoin="round"/>
	</g>
</svg>
