<svg width="20.000000" height="24.000000" viewBox="0 0 20 24" fill="none" xmlns="http://www.w3.org/2000/svg" xmlns:xlink="http://www.w3.org/1999/xlink">
	<desc>
			Created with Pixso.
	</desc>
	<defs/>
	<path id="Vector" d="M10 23C10 23 1 17 1 10C1 7.61 1.94 5.32 3.63 3.63C5.32 1.94 7.61 1 10 1C12.38 1 14.67 1.94 16.36 3.63C18.05 5.32 19 7.61 19 10C19 17 10 23 10 23Z" stroke="#FFFFFF" stroke-opacity="1.000000" stroke-width="2.000000" stroke-linejoin="round"/>
	<path id="Vector" d="M10 13C8.34 13 7 11.65 7 10C7 8.34 8.34 7 10 7C11.65 7 13 8.34 13 10C13 11.65 11.65 13 10 13Z" stroke="#FFFFFF" stroke-opacity="1.000000" stroke-width="2.000000" stroke-linejoin="round"/>
</svg>
