<svg width="21.888184" height="21.928711" viewBox="0 0 21.8882 21.9287" fill="none" xmlns="http://www.w3.org/2000/svg" xmlns:xlink="http://www.w3.org/1999/xlink">
	<desc>
			Created with Pixso.
	</desc>
	<defs/>
	<path id="Vector" d="M20.88 18.91C20.88 19.19 20.83 19.47 20.72 19.72C20.6 19.98 20.44 20.21 20.23 20.4C20.03 20.59 19.79 20.73 19.52 20.82C19.26 20.91 18.98 20.94 18.7 20.91C15.63 20.58 12.67 19.53 10.07 17.85C7.66 16.31 5.61 14.26 4.07 11.85C2.38 9.24 1.33 6.27 1 3.18C0.98 2.9 1.01 2.62 1.1 2.36C1.19 2.09 1.33 1.85 1.52 1.65C1.7 1.44 1.93 1.28 2.19 1.17C2.44 1.05 2.71 1 2.99 1L5.99 1C6.48 0.99 6.95 1.16 7.32 1.48C7.68 1.8 7.92 2.23 7.99 2.72C8.12 3.68 8.35 4.62 8.69 5.53C8.83 5.88 8.86 6.27 8.78 6.65C8.7 7.02 8.51 7.36 8.24 7.64L6.97 8.91C8.4 11.41 10.47 13.48 12.97 14.91L14.24 13.64C14.51 13.37 14.86 13.18 15.23 13.1C15.61 13.02 15.99 13.05 16.35 13.18C17.26 13.52 18.2 13.76 19.16 13.89C19.65 13.95 20.09 14.2 20.41 14.57C20.73 14.95 20.89 15.42 20.88 15.91L20.88 18.91Z" stroke="#FFFFFF" stroke-opacity="1.000000" stroke-width="2.000000" stroke-linejoin="round"/>
</svg>
